<?xml version="1.0" encoding="utf-8"?>
<!-- Generator: Adobe Illustrator 25.0.0, SVG Export Plug-In . SVG Version: 6.00 Build 0)  -->
<svg version="1.1" id="Capa_1" xmlns="http://www.w3.org/2000/svg" xmlns:xlink="http://www.w3.org/1999/xlink" x="0px" y="0px"
	 viewBox="0 0 512 512" style="enable-background:new 0 0 512 512;" xml:space="preserve">
<style type="text/css">
	.st0{fill:#358491;}
</style>
<g>
	<g>
		<path class="st0" d="M509.4,23.9l-80.6,80.6l-21.2-21.2l80.6-80.6c-13.8-2.4-42.7-5.4-81.6,2.3c-31.4,6.1-63.3,17.9-94.7,34.9
			c-38.9,21.1-77.2,50.4-113.9,87.1c-27.8,27.8-51.8,55.5-72.4,82.1H303v177.5c26.5-20.6,54.3-44.6,82.1-72.4
			c36.7-36.7,66-75,87.1-113.9c17-31.4,28.8-63.3,34.9-94.7C514.7,66.5,511.8,37.7,509.4,23.9z"/>
	</g>
</g>
<g>
	<g>
		<path class="st0" d="M103.2,239c-11.7,16.6-22.1,32.4-31.2,47.3h153.7V440c14.9-9.1,30.8-19.5,47.3-31.2V239H103.2z"/>
	</g>
</g>
<g>
	<g>
		<path class="st0" d="M54.5,316.3c-4,7.3-7.7,14.2-11,20.6c-29.2,56.8-39.4,94.7-39.8,96.3L0,446.9l48.8,16.3L65.1,512l13.6-3.6
			c1.6-0.4,39.4-10.7,96.3-39.8c6.5-3.3,13.4-7,20.6-11V316.3H54.5z"/>
	</g>
</g>
</svg>
