<?xml version="1.0" encoding="utf-8"?>
<!-- Generator: Adobe Illustrator 25.0.0, SVG Export Plug-In . SVG Version: 6.00 Build 0)  -->
<svg version="1.1" id="Capa_1" xmlns="http://www.w3.org/2000/svg" xmlns:xlink="http://www.w3.org/1999/xlink" x="0px" y="0px"
	 viewBox="0 0 455.7 455.7" style="enable-background:new 0 0 455.7 455.7;" xml:space="preserve">
<style type="text/css">
	.st0{fill:#358491;}
</style>
<g>
	<path class="st0" d="M348.9,357.8l1.4,5c3,10.7,1.6,21.9-3.8,31.5c-5.4,9.7-14.3,16.6-25,19.6c-22.2,6.2-45-6.9-51.1-28.8
		L255.6,332c-2.4-0.5-4.8-1-7.2-1.5l-0.1,0.2l0.1-0.2l0.1-0.3l-0.2,0.3l-49.6,58.4c-14.9,17.6-41.1,19.5-58.5,4.8
		c-17.4-14.8-19.6-41-4.8-58.5l15.5-18.3c-78.8-5.8-136.6,4.1-141,27.4c-5.9,31.4,86.9,75.3,207.3,98s222.9,15.7,228.8-15.7
		C449.8,405.9,410.7,379.7,348.9,357.8z"/>
	<circle class="st0" cx="300.1" cy="37.9" r="37.9"/>
	<g>
		<path class="st0" d="M321.7,163.8l-22.9-36.9l1.4-3.2c5-11.5-0.2-24.9-11.7-29.9L241.3,73c-11.5-5-24.9,0.2-29.9,11.7l-1.9,4.3
			l23.8-1.5l-75.5,22.9c-6,1.8-10.7,6.6-12.5,12.6c-3.1,10.4-18.5,61.4-21.6,71.9c-3.2,10.5,3.3,21.6,14.2,23.8
			c9.6,1.9,18.9-3.7,21.7-13l18.7-62.2l0,0l68.4-20.7l-53.1,32.5l-16.8,55.6c-2.4,7.8-7.2,14.4-13.4,19l38.8,56.2L150,347.7
			c-7.9,9.3-6.8,23.3,2.6,31.3c9.3,7.9,23.4,6.8,31.3-2.6l63.4-74.6c6.1-7.2,7-17.4,2.3-25.5c-3.4-4.8,2.4,3.1-42.1-56.9
			c6.2,5.1,46.9,38.7,52.9,43.6c13.2,11,14.4,27.5,7.1,39.4l21.6,77.4c3.3,11.8,15.5,18.7,27.3,15.4c11.8-3.3,18.7-15.5,15.4-27.3
			l-30.5-109.2c-1.6-5.9-5.6-10.8-11.1-13.7l-35.1-18.4l7.8-17.7L279,172l13.5,24.5c4.7,8.5,14.9,12.3,24,8.8
			c15.1-5.8,44.3-17.7,67.8-27.4c4.4-1.8,7.9-5.3,9.7-9.8c1.8-4.4,1.7-9.4-0.2-13.8c0,0,0,0,0,0c-3.8-8.7-13.7-12.9-22.6-9.5
			L321.7,163.8z"/>
	</g>
</g>
</svg>
